<svg width="32" height="32" viewBox="0 0 32 32" fill="none" xmlns="http://www.w3.org/2000/svg">
<path d="M12.0001 4C8.31818 4 5.33341 6.98477 5.33341 10.6667C5.33341 14.3486 8.31818 17.3333 12.0001 17.3333C15.682 17.3333 18.6667 14.3486 18.6667 10.6667C18.6667 6.98477 15.682 4 12.0001 4ZM8.00008 10.6667C8.00008 8.45753 9.79094 6.66667 12.0001 6.66667C14.2092 6.66667 16.0001 8.45753 16.0001 10.6667C16.0001 12.8758 14.2092 14.6667 12.0001 14.6667C9.79094 14.6667 8.00008 12.8758 8.00008 10.6667Z" fill="#A2AAA9"/>
<path d="M22.5446 10.9577C22.1695 10.7665 21.7545 10.6667 21.3334 10.6667V8.00008C22.1755 8.00008 23.0057 8.19942 23.7559 8.58193C23.8386 8.62406 23.92 8.66828 24.0001 8.71453C24.6473 9.08818 25.2097 9.59425 25.6498 10.2007C26.1444 10.8823 26.4707 11.6713 26.6017 12.5032C26.7328 13.335 26.6651 14.1861 26.404 14.9867C26.1429 15.7874 25.696 16.5148 25.0997 17.1095C24.5035 17.7042 23.7748 18.1492 22.9735 18.4082C22.2605 18.6387 21.5079 18.7159 20.7648 18.6363C20.6728 18.6264 20.581 18.6141 20.4894 18.5995C19.6585 18.4663 18.8709 18.1384 18.1909 17.6425L18.1895 17.6415L19.7615 15.4874C20.1016 15.7356 20.4957 15.8997 20.9114 15.9663C21.3272 16.033 21.7528 16.0002 22.1534 15.8707C22.5541 15.7412 22.9184 15.5187 23.2165 15.2214C23.5146 14.924 23.7381 14.5603 23.8686 14.16C23.9992 13.7597 24.033 13.3342 23.9675 12.9183C23.902 12.5023 23.7389 12.1079 23.4916 11.7671C23.2442 11.4263 22.9198 11.149 22.5446 10.9577Z" fill="#A2AAA9"/>
<path d="M26.6642 28C26.6642 27.2999 26.5263 26.6068 26.2584 25.96C25.9905 25.3132 25.5979 24.7256 25.1029 24.2306C24.6079 23.7355 24.0202 23.3429 23.3734 23.075C22.7267 22.8071 22.0335 22.6692 21.3334 22.6692V20C22.2429 20 23.1446 20.1551 24.0001 20.4575C24.1328 20.5045 24.2645 20.555 24.3949 20.609C25.3655 21.011 26.2474 21.6003 26.9903 22.3431C27.7331 23.086 28.3224 23.9679 28.7245 24.9385C28.7785 25.0689 28.8289 25.2006 28.8759 25.3333C29.1784 26.1888 29.3334 27.0906 29.3334 28H26.6642Z" fill="#A2AAA9"/>
<path d="M21.3334 28H18.6667C18.6667 24.3181 15.682 21.3333 12.0001 21.3333C8.31818 21.3333 5.33341 24.3181 5.33341 28H2.66675C2.66675 22.8453 6.84542 18.6667 12.0001 18.6667C17.1547 18.6667 21.3334 22.8453 21.3334 28Z" fill="#A2AAA9"/>
</svg>
