<svg width="53" height="58" viewBox="0 0 53 58" fill="none" xmlns="http://www.w3.org/2000/svg">
<g clip-path="url(#clip0_24:25)">
<path d="M24.7295 37.6909H1.30931C-0.436435 32.0179 -0.436435 25.9487 1.30931 20.2757H39.7626C40.9025 20.2709 42.0322 20.4914 43.0871 20.9245C44.1421 21.3577 45.1016 21.995 45.911 22.8002C46.7204 23.6054 47.3638 24.5626 47.8045 25.6172C48.2451 26.6719 48.4744 27.8032 48.4791 28.9467C48.4839 30.0902 48.2641 31.2235 47.8324 32.2817C47.4006 33.34 46.7652 34.3027 45.9626 35.1146C45.1599 35.9266 44.2057 36.572 43.1545 37.0141C42.1032 37.4561 40.9754 37.6861 39.8355 37.6909H24.7295ZM23.6389 40.6061H2.37609C4.65131 45.7699 8.37008 50.1613 13.0821 53.2484C17.7941 56.3356 23.2973 57.9861 28.9252 58.0002C33.6844 57.9963 38.3696 56.8181 42.5679 54.5696C46.7663 52.321 50.3489 49.0711 53 45.1061C51.6325 43.6832 49.9946 42.5498 48.183 41.7728C46.3714 40.9957 44.4229 40.5909 42.4527 40.5822L23.6389 40.6061ZM42.4527 17.3816C44.4212 17.3759 46.3687 16.9747 48.1801 16.2019C49.9916 15.429 51.6305 14.3 53 12.8815C50.1065 8.5552 46.1079 5.08783 41.4219 2.84175C36.7359 0.595677 31.5346 -0.346672 26.3615 0.113177C21.1883 0.573026 16.2333 2.41819 12.014 5.45587C7.79474 8.49355 4.46617 12.6122 2.37609 17.3816H42.4527Z" fill="url(#paint0_linear_24:25)"/>
</g>
<defs>
<linearGradient id="paint0_linear_24:25" x1="26.5" y1="-0.000366211" x2="26.5" y2="58.0002" gradientUnits="userSpaceOnUse">
<stop stop-color="#5C25CC"/>
<stop offset="1" stop-color="#3948FF"/>
</linearGradient>
<clipPath id="clip0_24:25">
<rect width="53" height="58" fill="white"/>
</clipPath>
</defs>
</svg>
