<svg width="27" height="27" viewBox="0 0 27 27" fill="none" xmlns="http://www.w3.org/2000/svg">
<path d="M13.5 24.75C7.2868 24.75 2.25 19.7132 2.25 13.5C2.25 7.2868 7.2868 2.25 13.5 2.25C19.7132 2.25 24.75 7.2868 24.75 13.5C24.7432 19.7104 19.7104 24.7432 13.5 24.75ZM12.375 4.56975C8.6918 5.03553 5.67256 7.71513 4.77259 11.3169C3.87263 14.9187 5.27665 18.7035 8.30789 20.847C11.3391 22.9905 15.3755 23.0527 18.4714 21.0037L18.3589 21.0836L18.4646 21.0105L18.531 20.9644L18.603 20.9137L18.621 20.9014L18.6311 20.8935L12.8621 15.1223C12.5487 14.8033 12.3736 14.3736 12.375 13.9264V4.56975ZM15.5576 14.625L20.313 19.3804L20.3209 19.3714L20.3265 19.3646L20.3153 19.377C21.4758 18.0377 22.212 16.3837 22.4303 14.625H15.5576ZM14.625 4.56975V12.375H22.4303C21.9167 8.29587 18.7041 5.08333 14.625 4.56975Z" fill="#A2AAA9"/>
</svg>
