<svg width="28" height="28" viewBox="0 0 28 28" fill="none" xmlns="http://www.w3.org/2000/svg">
<path d="M8.16675 9.33333C8.16675 6.11167 10.7784 3.5 14.0001 3.5C17.2217 3.5 19.8334 6.11167 19.8334 9.33333C19.8334 12.555 17.2217 15.1667 14.0001 15.1667C10.7784 15.1667 8.16675 12.555 8.16675 9.33333ZM14.0001 12.8333C15.9331 12.8333 17.5001 11.2663 17.5001 9.33333C17.5001 7.40034 15.9331 5.83333 14.0001 5.83333C12.0671 5.83333 10.5001 7.40034 10.5001 9.33333C10.5001 11.2663 12.0671 12.8333 14.0001 12.8333Z" fill="#212121"/>
<path d="M7.40042 19.067C5.65008 20.8173 4.66675 23.1913 4.66675 25.6667H7.00008C7.00008 23.8102 7.73758 22.0297 9.05033 20.7169C10.3631 19.4042 12.1436 18.6667 14.0001 18.6667C15.8566 18.6667 17.6371 19.4042 18.9498 20.7169C20.2626 22.0297 21.0001 23.8102 21.0001 25.6667H23.3334C23.3334 23.1913 22.3501 20.8173 20.5997 19.067C18.8494 17.3167 16.4754 16.3333 14.0001 16.3333C11.5247 16.3333 9.15076 17.3167 7.40042 19.067Z" fill="#212121"/>
</svg>
